<svg width="256" height="137" viewBox="0 0 256 137" fill="none" xmlns="http://www.w3.org/2000/svg">
<path fill-rule="evenodd" clip-rule="evenodd" d="M122.386 3.49436C107.682 6.21541 98.6973 13.5929 85.0045 17.4058C73.1795 20.6985 59.3674 21.4012 47.2484 24.417C32.9885 27.9654 15.2225 30.0578 6.91891 36.837C-1.24414 43.5014 -1.99069 52.7211 3.65977 60.0034C9.62869 67.6962 38.2969 69.146 38.3875 77.3935C38.5233 89.7464 -9.63248 99.7035 4.20868 109.952C17.5728 119.847 51.3633 100.886 74.4273 104.079C89.5488 106.172 88.8021 118.204 100.693 123.308C114.575 129.265 131.427 138.845 148.848 136.019C167.676 132.965 170.784 119.754 178.545 110.677C184.106 104.173 176.803 94.5065 188.035 90.187C204.725 83.7686 234.576 91.0025 249.282 83.475C260.476 77.7449 256.116 66.4778 247.585 59.7046C238 52.0945 205.125 54.612 201.805 45.7809C196.807 32.487 236.547 20.5797 228.046 7.73474C222.022 -1.36756 191.506 2.01556 172.332 1.24608C155.527 0.571632 138.192 0.569663 122.386 3.49436Z" fill="#E1F3FD"/>
</svg>
